<mxfile host="Electron" modified="2023-11-25T06:18:56.631Z" agent="Mozilla/5.0 (Windows NT 10.0; Win64; x64) AppleWebKit/537.36 (KHTML, like Gecko) draw.io/22.1.2 Chrome/114.0.5735.289 Electron/25.9.4 Safari/537.36" etag="6mDB17Xw4TpfeY_9Gfcb" version="22.1.2" type="device" pages="2">
  <diagram id="C5RBs43oDa-KdzZeNtuy" name="类图">
    <mxGraphModel dx="1936" dy="724" grid="1" gridSize="10" guides="1" tooltips="1" connect="1" arrows="1" fold="1" page="1" pageScale="1" pageWidth="827" pageHeight="1169" math="0" shadow="0">
      <root>
        <mxCell id="WIyWlLk6GJQsqaUBKTNV-0" />
        <mxCell id="WIyWlLk6GJQsqaUBKTNV-1" parent="WIyWlLk6GJQsqaUBKTNV-0" />
        <mxCell id="NpnCB2qKCxTyMOByIzZv-1" value="DataCollector" style="swimlane;fontStyle=1;align=center;verticalAlign=top;childLayout=stackLayout;horizontal=1;startSize=26;horizontalStack=0;resizeParent=1;resizeParentMax=0;resizeLast=0;collapsible=1;marginBottom=0;whiteSpace=wrap;html=1;fontSize=16;" parent="WIyWlLk6GJQsqaUBKTNV-1" vertex="1">
          <mxGeometry x="-400" y="300" width="380" height="350" as="geometry" />
        </mxCell>
        <mxCell id="NpnCB2qKCxTyMOByIzZv-2" value="- radarData: vector&amp;lt;&lt;b style=&quot;text-align: center;&quot;&gt;radar_frame_t&lt;/b&gt;&amp;gt;&lt;br&gt;- lidarData: vector&amp;lt;PointView&amp;gt;&lt;br&gt;- cameraData: vector&amp;lt;camera_data_t&amp;gt;&lt;br&gt;+ matchType:&amp;nbsp;&lt;b style=&quot;text-align: center;&quot;&gt;match_type_e&lt;/b&gt;&lt;br&gt;+ devMatch: SensorMatch*" style="text;strokeColor=none;fillColor=none;align=left;verticalAlign=top;spacingLeft=4;spacingRight=4;overflow=hidden;rotatable=0;points=[[0,0.5],[1,0.5]];portConstraint=eastwest;whiteSpace=wrap;html=1;fontSize=16;" parent="NpnCB2qKCxTyMOByIzZv-1" vertex="1">
          <mxGeometry y="26" width="380" height="134" as="geometry" />
        </mxCell>
        <mxCell id="NpnCB2qKCxTyMOByIzZv-3" value="" style="line;strokeWidth=1;fillColor=none;align=left;verticalAlign=middle;spacingTop=-1;spacingLeft=3;spacingRight=3;rotatable=0;labelPosition=right;points=[];portConstraint=eastwest;strokeColor=inherit;fontSize=16;" parent="NpnCB2qKCxTyMOByIzZv-1" vertex="1">
          <mxGeometry y="160" width="380" height="8" as="geometry" />
        </mxCell>
        <mxCell id="NpnCB2qKCxTyMOByIzZv-4" value="+ add(const StructRadarData&amp;amp;): void&lt;br&gt;+ add(const PointView&amp;amp;): void&lt;br&gt;+ add(const camera_data_t&amp;amp;): void&lt;br&gt;&lt;br&gt;- match(): void&amp;nbsp;" style="text;strokeColor=none;fillColor=none;align=left;verticalAlign=top;spacingLeft=4;spacingRight=4;overflow=hidden;rotatable=0;points=[[0,0.5],[1,0.5]];portConstraint=eastwest;whiteSpace=wrap;html=1;fontSize=16;" parent="NpnCB2qKCxTyMOByIzZv-1" vertex="1">
          <mxGeometry y="168" width="380" height="182" as="geometry" />
        </mxCell>
        <mxCell id="NpnCB2qKCxTyMOByIzZv-5" value="&amp;lt;&amp;lt;enumeration&amp;gt;&amp;gt;&lt;br&gt;&lt;b&gt;match_type_e&lt;/b&gt;" style="swimlane;fontStyle=0;align=center;verticalAlign=top;childLayout=stackLayout;horizontal=1;startSize=50;horizontalStack=0;resizeParent=1;resizeParentMax=0;resizeLast=0;collapsible=0;marginBottom=0;html=1;whiteSpace=wrap;fontSize=16;" parent="WIyWlLk6GJQsqaUBKTNV-1" vertex="1">
          <mxGeometry x="100" y="760" width="200" height="170" as="geometry" />
        </mxCell>
        <mxCell id="NpnCB2qKCxTyMOByIzZv-6" value="none&lt;br&gt;lidar_camera_match&lt;br&gt;radar_camera_match&lt;br&gt;lidar_radar_match&lt;br&gt;lidar_radar_camera_match" style="text;html=1;strokeColor=none;fillColor=none;align=left;verticalAlign=middle;spacingLeft=4;spacingRight=4;overflow=hidden;rotatable=0;points=[[0,0.5],[1,0.5]];portConstraint=eastwest;whiteSpace=wrap;fontSize=16;" parent="NpnCB2qKCxTyMOByIzZv-5" vertex="1">
          <mxGeometry y="50" width="200" height="120" as="geometry" />
        </mxCell>
        <mxCell id="K6MOPFkpMzCfxZ5sMmjK-0" value="SensorMatch" style="swimlane;fontStyle=1;align=center;verticalAlign=top;childLayout=stackLayout;horizontal=1;startSize=26;horizontalStack=0;resizeParent=1;resizeParentMax=0;resizeLast=0;collapsible=1;marginBottom=0;whiteSpace=wrap;html=1;fontSize=16;" parent="WIyWlLk6GJQsqaUBKTNV-1" vertex="1">
          <mxGeometry x="80" y="275" width="640" height="400" as="geometry" />
        </mxCell>
        <mxCell id="K6MOPFkpMzCfxZ5sMmjK-1" value="+ matchData: vector&amp;lt;match_data_t&amp;gt;&lt;br&gt;" style="text;strokeColor=none;fillColor=none;align=left;verticalAlign=top;spacingLeft=4;spacingRight=4;overflow=hidden;rotatable=0;points=[[0,0.5],[1,0.5]];portConstraint=eastwest;whiteSpace=wrap;html=1;fontSize=16;" parent="K6MOPFkpMzCfxZ5sMmjK-0" vertex="1">
          <mxGeometry y="26" width="640" height="94" as="geometry" />
        </mxCell>
        <mxCell id="K6MOPFkpMzCfxZ5sMmjK-2" value="" style="line;strokeWidth=1;fillColor=none;align=left;verticalAlign=middle;spacingTop=-1;spacingLeft=3;spacingRight=3;rotatable=0;labelPosition=right;points=[];portConstraint=eastwest;strokeColor=inherit;fontSize=16;" parent="K6MOPFkpMzCfxZ5sMmjK-0" vertex="1">
          <mxGeometry y="120" width="640" height="8" as="geometry" />
        </mxCell>
        <mxCell id="K6MOPFkpMzCfxZ5sMmjK-3" value="using lidarDB = vector&amp;lt;PointView&amp;gt;;&lt;br&gt;using radarDB = vector&amp;lt;StructRadarData&amp;gt;;&lt;br&gt;using cameraDB = vector&amp;lt;camera_data_t&amp;gt;;&lt;br&gt;&lt;br&gt;+ lidar_camera_match(const lidarDB&amp;amp;, const cameraDB&amp;amp;): void&lt;br&gt;+ radar_camera_match(const radarDB&amp;nbsp;&amp;amp;,const cameraDB&amp;amp;): void&lt;br&gt;+ lidar_radar_camera_match(const lidarDB&amp;amp;,const radarDB&amp;amp;,const cameraDB&amp;amp;): void" style="text;strokeColor=none;fillColor=none;align=left;verticalAlign=top;spacingLeft=4;spacingRight=4;overflow=hidden;rotatable=0;points=[[0,0.5],[1,0.5]];portConstraint=eastwest;whiteSpace=wrap;html=1;fontSize=16;" parent="K6MOPFkpMzCfxZ5sMmjK-0" vertex="1">
          <mxGeometry y="128" width="640" height="272" as="geometry" />
        </mxCell>
        <mxCell id="K6MOPFkpMzCfxZ5sMmjK-4" value="&amp;lt;&amp;lt;structure&amp;gt;&amp;gt;&lt;br&gt;&lt;b&gt;match_data_t&lt;/b&gt;" style="swimlane;fontStyle=0;align=center;verticalAlign=top;childLayout=stackLayout;horizontal=1;startSize=50;horizontalStack=0;resizeParent=1;resizeParentMax=0;resizeLast=0;collapsible=0;marginBottom=0;html=1;whiteSpace=wrap;fontSize=16;" parent="WIyWlLk6GJQsqaUBKTNV-1" vertex="1">
          <mxGeometry x="-370" y="770" width="330" height="140" as="geometry" />
        </mxCell>
        <mxCell id="K6MOPFkpMzCfxZ5sMmjK-5" value="lidarData: pcl::PointCloud&amp;lt;PointXYZIT&amp;gt;::Ptr&amp;nbsp;&lt;br&gt;radarData: vector&amp;lt;StructRadarInfo&amp;gt;&amp;nbsp;&lt;br&gt;cameraData: cv::Mat" style="text;html=1;strokeColor=none;fillColor=none;align=left;verticalAlign=middle;spacingLeft=4;spacingRight=4;overflow=hidden;rotatable=0;points=[[0,0.5],[1,0.5]];portConstraint=eastwest;whiteSpace=wrap;fontSize=16;" parent="K6MOPFkpMzCfxZ5sMmjK-4" vertex="1">
          <mxGeometry y="50" width="330" height="90" as="geometry" />
        </mxCell>
        <mxCell id="K6MOPFkpMzCfxZ5sMmjK-6" value="&amp;lt;&amp;lt;structure&amp;gt;&amp;gt;&lt;br&gt;&lt;b&gt;camera_data_t&lt;/b&gt;" style="swimlane;fontStyle=0;align=center;verticalAlign=top;childLayout=stackLayout;horizontal=1;startSize=50;horizontalStack=0;resizeParent=1;resizeParentMax=0;resizeLast=0;collapsible=0;marginBottom=0;html=1;whiteSpace=wrap;fontSize=16;" parent="WIyWlLk6GJQsqaUBKTNV-1" vertex="1">
          <mxGeometry x="-805" y="515" width="330" height="140" as="geometry" />
        </mxCell>
        <mxCell id="K6MOPFkpMzCfxZ5sMmjK-7" value="+ frame: vector&amp;lt;camera_frame_t&amp;gt;" style="text;html=1;strokeColor=none;fillColor=none;align=left;verticalAlign=middle;spacingLeft=4;spacingRight=4;overflow=hidden;rotatable=0;points=[[0,0.5],[1,0.5]];portConstraint=eastwest;whiteSpace=wrap;fontSize=16;" parent="K6MOPFkpMzCfxZ5sMmjK-6" vertex="1">
          <mxGeometry y="50" width="330" height="90" as="geometry" />
        </mxCell>
        <mxCell id="K6MOPFkpMzCfxZ5sMmjK-8" value="&amp;lt;&amp;lt;structure&amp;gt;&amp;gt;&lt;br&gt;&lt;b&gt;camera_frame_t&lt;/b&gt;" style="swimlane;fontStyle=0;align=center;verticalAlign=top;childLayout=stackLayout;horizontal=1;startSize=50;horizontalStack=0;resizeParent=1;resizeParentMax=0;resizeLast=0;collapsible=0;marginBottom=0;html=1;whiteSpace=wrap;fontSize=16;" parent="WIyWlLk6GJQsqaUBKTNV-1" vertex="1">
          <mxGeometry x="-800" y="306" width="330" height="140" as="geometry" />
        </mxCell>
        <mxCell id="K6MOPFkpMzCfxZ5sMmjK-9" value="+ buf: QByteArray&lt;br&gt;+ uint32_t: time" style="text;html=1;strokeColor=none;fillColor=none;align=left;verticalAlign=middle;spacingLeft=4;spacingRight=4;overflow=hidden;rotatable=0;points=[[0,0.5],[1,0.5]];portConstraint=eastwest;whiteSpace=wrap;fontSize=16;" parent="K6MOPFkpMzCfxZ5sMmjK-8" vertex="1">
          <mxGeometry y="50" width="330" height="90" as="geometry" />
        </mxCell>
        <mxCell id="K6MOPFkpMzCfxZ5sMmjK-10" value="&amp;lt;&amp;lt;structure&amp;gt;&amp;gt;&lt;br&gt;&lt;b&gt;radar_frame_t&lt;/b&gt;" style="swimlane;fontStyle=0;align=center;verticalAlign=top;childLayout=stackLayout;horizontal=1;startSize=50;horizontalStack=0;resizeParent=1;resizeParentMax=0;resizeLast=0;collapsible=0;marginBottom=0;html=1;whiteSpace=wrap;fontSize=16;" parent="WIyWlLk6GJQsqaUBKTNV-1" vertex="1">
          <mxGeometry x="-730" y="770" width="330" height="140" as="geometry" />
        </mxCell>
        <mxCell id="K6MOPFkpMzCfxZ5sMmjK-11" value="+ buf: vector&amp;lt;StructRadarInfo&amp;gt;&lt;br&gt;+ uint32_t: time" style="text;html=1;strokeColor=none;fillColor=none;align=left;verticalAlign=middle;spacingLeft=4;spacingRight=4;overflow=hidden;rotatable=0;points=[[0,0.5],[1,0.5]];portConstraint=eastwest;whiteSpace=wrap;fontSize=16;" parent="K6MOPFkpMzCfxZ5sMmjK-10" vertex="1">
          <mxGeometry y="50" width="330" height="90" as="geometry" />
        </mxCell>
        <mxCell id="Ke96vfTcBJncT7bXDPZR-1" value="Extends" style="endArrow=block;endSize=16;endFill=0;html=1;rounded=0;fontSize=12;curved=1;" parent="WIyWlLk6GJQsqaUBKTNV-1" source="NpnCB2qKCxTyMOByIzZv-1" target="Ke96vfTcBJncT7bXDPZR-2" edge="1">
          <mxGeometry width="160" relative="1" as="geometry">
            <mxPoint x="-210" y="220" as="sourcePoint" />
            <mxPoint x="-210" y="210" as="targetPoint" />
          </mxGeometry>
        </mxCell>
        <mxCell id="Ke96vfTcBJncT7bXDPZR-2" value="&amp;lt;&amp;lt;class&amp;gt;&amp;gt;&lt;br&gt;&lt;b&gt;Singleton&lt;/b&gt;" style="swimlane;fontStyle=0;align=center;verticalAlign=top;childLayout=stackLayout;horizontal=1;startSize=50;horizontalStack=0;resizeParent=1;resizeParentMax=0;resizeLast=0;collapsible=0;marginBottom=0;html=1;whiteSpace=wrap;fontSize=16;" parent="WIyWlLk6GJQsqaUBKTNV-1" vertex="1">
          <mxGeometry x="-375" y="90" width="330" height="140" as="geometry" />
        </mxCell>
        <mxCell id="Ke96vfTcBJncT7bXDPZR-3" value="template &amp;lt;typename T&amp;gt;&lt;br&gt;+ &lt;u&gt;instance()&lt;/u&gt;: T*" style="text;html=1;strokeColor=none;fillColor=none;align=left;verticalAlign=middle;spacingLeft=4;spacingRight=4;overflow=hidden;rotatable=0;points=[[0,0.5],[1,0.5]];portConstraint=eastwest;whiteSpace=wrap;fontSize=16;" parent="Ke96vfTcBJncT7bXDPZR-2" vertex="1">
          <mxGeometry y="50" width="330" height="90" as="geometry" />
        </mxCell>
        <mxCell id="Ke96vfTcBJncT7bXDPZR-5" value="" style="endArrow=diamondThin;endFill=1;endSize=24;html=1;rounded=0;fontSize=12;curved=1;" parent="WIyWlLk6GJQsqaUBKTNV-1" source="K6MOPFkpMzCfxZ5sMmjK-4" target="NpnCB2qKCxTyMOByIzZv-1" edge="1">
          <mxGeometry width="160" relative="1" as="geometry">
            <mxPoint x="-250" y="790" as="sourcePoint" />
            <mxPoint x="-90" y="790" as="targetPoint" />
          </mxGeometry>
        </mxCell>
        <mxCell id="Ke96vfTcBJncT7bXDPZR-7" value="" style="endArrow=diamondThin;endFill=1;endSize=24;html=1;rounded=0;fontSize=12;curved=1;" parent="WIyWlLk6GJQsqaUBKTNV-1" source="K6MOPFkpMzCfxZ5sMmjK-10" target="NpnCB2qKCxTyMOByIzZv-1" edge="1">
          <mxGeometry width="160" relative="1" as="geometry">
            <mxPoint x="-360" y="450" as="sourcePoint" />
            <mxPoint x="-200" y="450" as="targetPoint" />
          </mxGeometry>
        </mxCell>
        <mxCell id="Ke96vfTcBJncT7bXDPZR-8" value="" style="endArrow=diamondThin;endFill=1;endSize=24;html=1;rounded=0;fontSize=12;curved=1;" parent="WIyWlLk6GJQsqaUBKTNV-1" source="NpnCB2qKCxTyMOByIzZv-5" target="NpnCB2qKCxTyMOByIzZv-1" edge="1">
          <mxGeometry width="160" relative="1" as="geometry">
            <mxPoint x="-483" y="204.20941176470592" as="sourcePoint" />
            <mxPoint x="-413" y="179.99764705882376" as="targetPoint" />
          </mxGeometry>
        </mxCell>
        <mxCell id="Ke96vfTcBJncT7bXDPZR-9" value="" style="endArrow=diamondThin;endFill=1;endSize=24;html=1;rounded=0;fontSize=12;curved=1;" parent="WIyWlLk6GJQsqaUBKTNV-1" source="K6MOPFkpMzCfxZ5sMmjK-6" target="K6MOPFkpMzCfxZ5sMmjK-8" edge="1">
          <mxGeometry width="160" relative="1" as="geometry">
            <mxPoint x="-370" y="780" as="sourcePoint" />
            <mxPoint x="-210" y="780" as="targetPoint" />
          </mxGeometry>
        </mxCell>
        <mxCell id="Ke96vfTcBJncT7bXDPZR-11" value="" style="endArrow=diamondThin;endFill=1;endSize=24;html=1;rounded=0;fontSize=12;curved=1;" parent="WIyWlLk6GJQsqaUBKTNV-1" source="K6MOPFkpMzCfxZ5sMmjK-0" target="NpnCB2qKCxTyMOByIzZv-1" edge="1">
          <mxGeometry width="160" relative="1" as="geometry">
            <mxPoint x="160.30999999999995" y="754" as="sourcePoint" />
            <mxPoint x="334.30999999999995" y="584" as="targetPoint" />
          </mxGeometry>
        </mxCell>
        <mxCell id="Ke96vfTcBJncT7bXDPZR-12" value="" style="endArrow=diamondThin;endFill=1;endSize=24;html=1;rounded=0;fontSize=12;curved=1;" parent="WIyWlLk6GJQsqaUBKTNV-1" source="K6MOPFkpMzCfxZ5sMmjK-6" target="NpnCB2qKCxTyMOByIzZv-1" edge="1">
          <mxGeometry width="160" relative="1" as="geometry">
            <mxPoint x="-535.08" y="700" as="sourcePoint" />
            <mxPoint x="-418.08" y="580" as="targetPoint" />
          </mxGeometry>
        </mxCell>
        <mxCell id="mwsLb0MkK6QWQw_0F4uh-0" value="FusionWidget" style="swimlane;fontStyle=1;align=center;verticalAlign=top;childLayout=stackLayout;horizontal=1;startSize=26;horizontalStack=0;resizeParent=1;resizeParentMax=0;resizeLast=0;collapsible=1;marginBottom=0;whiteSpace=wrap;html=1;fontSize=16;" parent="WIyWlLk6GJQsqaUBKTNV-1" vertex="1">
          <mxGeometry x="550" y="780" width="190" height="170" as="geometry" />
        </mxCell>
        <mxCell id="mwsLb0MkK6QWQw_0F4uh-1" value="+ devMatch: DevMatch" style="text;strokeColor=none;fillColor=none;align=left;verticalAlign=top;spacingLeft=4;spacingRight=4;overflow=hidden;rotatable=0;points=[[0,0.5],[1,0.5]];portConstraint=eastwest;whiteSpace=wrap;html=1;fontSize=16;" parent="mwsLb0MkK6QWQw_0F4uh-0" vertex="1">
          <mxGeometry y="26" width="190" height="26" as="geometry" />
        </mxCell>
        <mxCell id="mwsLb0MkK6QWQw_0F4uh-2" value="" style="line;strokeWidth=1;fillColor=none;align=left;verticalAlign=middle;spacingTop=-1;spacingLeft=3;spacingRight=3;rotatable=0;labelPosition=right;points=[];portConstraint=eastwest;strokeColor=inherit;fontSize=16;" parent="mwsLb0MkK6QWQw_0F4uh-0" vertex="1">
          <mxGeometry y="52" width="190" height="8" as="geometry" />
        </mxCell>
        <mxCell id="mwsLb0MkK6QWQw_0F4uh-3" value="+ onCheckBoxClick: void" style="text;strokeColor=none;fillColor=none;align=left;verticalAlign=top;spacingLeft=4;spacingRight=4;overflow=hidden;rotatable=0;points=[[0,0.5],[1,0.5]];portConstraint=eastwest;whiteSpace=wrap;html=1;fontSize=16;" parent="mwsLb0MkK6QWQw_0F4uh-0" vertex="1">
          <mxGeometry y="60" width="190" height="110" as="geometry" />
        </mxCell>
      </root>
    </mxGraphModel>
  </diagram>
  <diagram id="EE2f4OkNjE_n_ey3gGdg" name="分支结构">
    <mxGraphModel dx="2248" dy="1607" grid="1" gridSize="10" guides="1" tooltips="1" connect="1" arrows="1" fold="1" page="0" pageScale="1" pageWidth="827" pageHeight="1169" background="none" math="0" shadow="0">
      <root>
        <mxCell id="0" />
        <mxCell id="1" parent="0" />
        <mxCell id="RP_2uXz7BemKraklUsJN-1" value="实时配准" style="ellipse;whiteSpace=wrap;html=1;align=center;newEdgeStyle={&quot;edgeStyle&quot;:&quot;entityRelationEdgeStyle&quot;,&quot;startArrow&quot;:&quot;none&quot;,&quot;endArrow&quot;:&quot;none&quot;,&quot;segment&quot;:10,&quot;curved&quot;:1,&quot;sourcePerimeterSpacing&quot;:0,&quot;targetPerimeterSpacing&quot;:0};treeFolding=1;treeMoving=1;fontSize=16;labelBackgroundColor=none;fillColor=#FFE45E;strokeColor=#FF6392;fontColor=#5AA9E6;" parent="1" vertex="1">
          <mxGeometry x="-125" y="78" width="100" height="40" as="geometry" />
        </mxCell>
        <mxCell id="RP_2uXz7BemKraklUsJN-9" value="" style="edgeStyle=entityRelationEdgeStyle;curved=1;rounded=0;orthogonalLoop=1;jettySize=auto;html=1;startArrow=none;endArrow=none;segment=10;sourcePerimeterSpacing=0;targetPerimeterSpacing=0;fontSize=12;startSize=8;endSize=8;" parent="1" source="RP_2uXz7BemKraklUsJN-2" target="RP_2uXz7BemKraklUsJN-8" edge="1">
          <mxGeometry relative="1" as="geometry" />
        </mxCell>
        <mxCell id="RP_2uXz7BemKraklUsJN-10" value="" style="edgeStyle=entityRelationEdgeStyle;curved=1;rounded=0;orthogonalLoop=1;jettySize=auto;html=1;startArrow=none;endArrow=none;segment=10;sourcePerimeterSpacing=0;targetPerimeterSpacing=0;fontSize=12;startSize=8;endSize=8;" parent="1" source="RP_2uXz7BemKraklUsJN-2" target="RP_2uXz7BemKraklUsJN-8" edge="1">
          <mxGeometry relative="1" as="geometry" />
        </mxCell>
        <mxCell id="PaXp9i7FlpDdy5BiucVH-2" value="" style="edgeStyle=entityRelationEdgeStyle;curved=1;rounded=0;orthogonalLoop=1;jettySize=auto;html=1;startArrow=none;endArrow=none;segment=10;sourcePerimeterSpacing=0;targetPerimeterSpacing=0;fontSize=12;startSize=8;endSize=8;" parent="1" source="RP_2uXz7BemKraklUsJN-4" target="PaXp9i7FlpDdy5BiucVH-1" edge="1">
          <mxGeometry relative="1" as="geometry" />
        </mxCell>
        <mxCell id="RP_2uXz7BemKraklUsJN-2" value="数据收集" style="whiteSpace=wrap;html=1;shape=partialRectangle;top=0;left=0;bottom=1;right=0;points=[[0,1],[1,1]];fillColor=none;align=center;verticalAlign=bottom;routingCenterY=0.5;snapToPoint=1;recursiveResize=0;autosize=1;treeFolding=1;treeMoving=1;newEdgeStyle={&quot;edgeStyle&quot;:&quot;entityRelationEdgeStyle&quot;,&quot;startArrow&quot;:&quot;none&quot;,&quot;endArrow&quot;:&quot;none&quot;,&quot;segment&quot;:10,&quot;curved&quot;:1,&quot;sourcePerimeterSpacing&quot;:0,&quot;targetPerimeterSpacing&quot;:0};fontSize=16;labelBackgroundColor=none;strokeColor=#FF6392;fontColor=#5AA9E6;" parent="1" vertex="1">
          <mxGeometry x="38" y="-220.5" width="99" height="31" as="geometry" />
        </mxCell>
        <mxCell id="RP_2uXz7BemKraklUsJN-3" value="" style="edgeStyle=entityRelationEdgeStyle;startArrow=none;endArrow=none;segment=10;curved=1;sourcePerimeterSpacing=0;targetPerimeterSpacing=0;rounded=0;fontSize=12;startSize=8;endSize=8;labelBackgroundColor=none;strokeColor=#FF6392;fontColor=default;" parent="1" source="RP_2uXz7BemKraklUsJN-1" target="RP_2uXz7BemKraklUsJN-2" edge="1">
          <mxGeometry relative="1" as="geometry">
            <mxPoint x="16" y="118" as="sourcePoint" />
          </mxGeometry>
        </mxCell>
        <mxCell id="RP_2uXz7BemKraklUsJN-5" style="edgeStyle=entityRelationEdgeStyle;curved=1;rounded=0;orthogonalLoop=1;jettySize=auto;html=1;startArrow=none;endArrow=none;segment=10;sourcePerimeterSpacing=0;targetPerimeterSpacing=0;exitX=0;exitY=1;exitDx=0;exitDy=0;fontSize=12;startSize=8;endSize=8;labelBackgroundColor=none;strokeColor=#FF6392;fontColor=default;" parent="1" source="RP_2uXz7BemKraklUsJN-4" target="RP_2uXz7BemKraklUsJN-1" edge="1">
          <mxGeometry relative="1" as="geometry" />
        </mxCell>
        <mxCell id="RP_2uXz7BemKraklUsJN-42" value="" style="edgeStyle=entityRelationEdgeStyle;curved=1;rounded=0;orthogonalLoop=1;jettySize=auto;html=1;startArrow=none;endArrow=none;segment=10;sourcePerimeterSpacing=0;targetPerimeterSpacing=0;fontSize=12;startSize=8;endSize=8;" parent="1" source="RP_2uXz7BemKraklUsJN-4" target="RP_2uXz7BemKraklUsJN-41" edge="1">
          <mxGeometry relative="1" as="geometry">
            <mxPoint x="110" y="110" as="sourcePoint" />
          </mxGeometry>
        </mxCell>
        <mxCell id="RP_2uXz7BemKraklUsJN-4" value="数据匹配" style="whiteSpace=wrap;html=1;shape=partialRectangle;top=0;left=0;bottom=1;right=0;points=[[0,1],[1,1]];fillColor=none;align=center;verticalAlign=bottom;routingCenterY=0.5;snapToPoint=1;recursiveResize=0;autosize=1;treeFolding=1;treeMoving=1;newEdgeStyle={&quot;edgeStyle&quot;:&quot;entityRelationEdgeStyle&quot;,&quot;startArrow&quot;:&quot;none&quot;,&quot;endArrow&quot;:&quot;none&quot;,&quot;segment&quot;:10,&quot;curved&quot;:1,&quot;sourcePerimeterSpacing&quot;:0,&quot;targetPerimeterSpacing&quot;:0};fontSize=16;labelBackgroundColor=none;strokeColor=#FF6392;fontColor=#5AA9E6;" parent="1" vertex="1">
          <mxGeometry x="38" y="87" width="99" height="31" as="geometry" />
        </mxCell>
        <mxCell id="RP_2uXz7BemKraklUsJN-7" style="edgeStyle=entityRelationEdgeStyle;curved=1;rounded=0;orthogonalLoop=1;jettySize=auto;html=1;startArrow=none;endArrow=none;segment=10;sourcePerimeterSpacing=0;targetPerimeterSpacing=0;exitX=0;exitY=1;exitDx=0;exitDy=0;fontSize=12;startSize=8;endSize=8;labelBackgroundColor=none;strokeColor=#FF6392;fontColor=default;" parent="1" source="RP_2uXz7BemKraklUsJN-6" target="RP_2uXz7BemKraklUsJN-1" edge="1">
          <mxGeometry relative="1" as="geometry" />
        </mxCell>
        <mxCell id="01GKTy-UXz0M2EFUFrAS-3" value="" style="edgeStyle=entityRelationEdgeStyle;curved=1;rounded=0;orthogonalLoop=1;jettySize=auto;html=1;startArrow=none;endArrow=none;segment=10;sourcePerimeterSpacing=0;targetPerimeterSpacing=0;fontSize=12;startSize=8;endSize=8;" parent="1" source="RP_2uXz7BemKraklUsJN-6" target="01GKTy-UXz0M2EFUFrAS-2" edge="1">
          <mxGeometry relative="1" as="geometry" />
        </mxCell>
        <mxCell id="01GKTy-UXz0M2EFUFrAS-11" value="" style="edgeStyle=entityRelationEdgeStyle;curved=1;rounded=0;orthogonalLoop=1;jettySize=auto;html=1;startArrow=none;endArrow=none;segment=10;sourcePerimeterSpacing=0;targetPerimeterSpacing=0;fontSize=12;startSize=8;endSize=8;" parent="1" source="RP_2uXz7BemKraklUsJN-6" target="01GKTy-UXz0M2EFUFrAS-10" edge="1">
          <mxGeometry relative="1" as="geometry" />
        </mxCell>
        <mxCell id="01GKTy-UXz0M2EFUFrAS-15" value="" style="edgeStyle=entityRelationEdgeStyle;curved=1;rounded=0;orthogonalLoop=1;jettySize=auto;html=1;startArrow=none;endArrow=none;segment=10;sourcePerimeterSpacing=0;targetPerimeterSpacing=0;fontSize=12;startSize=8;endSize=8;" parent="1" source="RP_2uXz7BemKraklUsJN-6" target="01GKTy-UXz0M2EFUFrAS-14" edge="1">
          <mxGeometry relative="1" as="geometry" />
        </mxCell>
        <mxCell id="RP_2uXz7BemKraklUsJN-6" value="数据显示" style="whiteSpace=wrap;html=1;shape=partialRectangle;top=0;left=0;bottom=1;right=0;points=[[0,1],[1,1]];fillColor=none;align=center;verticalAlign=bottom;routingCenterY=0.5;snapToPoint=1;recursiveResize=0;autosize=1;treeFolding=1;treeMoving=1;newEdgeStyle={&quot;edgeStyle&quot;:&quot;entityRelationEdgeStyle&quot;,&quot;startArrow&quot;:&quot;none&quot;,&quot;endArrow&quot;:&quot;none&quot;,&quot;segment&quot;:10,&quot;curved&quot;:1,&quot;sourcePerimeterSpacing&quot;:0,&quot;targetPerimeterSpacing&quot;:0};fontSize=16;labelBackgroundColor=none;strokeColor=#FF6392;fontColor=#5AA9E6;" parent="1" vertex="1">
          <mxGeometry x="211" y="620" width="99" height="31" as="geometry" />
        </mxCell>
        <mxCell id="RP_2uXz7BemKraklUsJN-20" value="" style="edgeStyle=entityRelationEdgeStyle;curved=1;rounded=0;orthogonalLoop=1;jettySize=auto;html=1;startArrow=none;endArrow=none;segment=10;sourcePerimeterSpacing=0;targetPerimeterSpacing=0;fontSize=12;startSize=8;endSize=8;" parent="1" source="RP_2uXz7BemKraklUsJN-50" target="RP_2uXz7BemKraklUsJN-21" edge="1">
          <mxGeometry relative="1" as="geometry">
            <mxPoint x="741" y="-188.71" as="sourcePoint" />
            <mxPoint x="371" y="-143.71" as="targetPoint" />
          </mxGeometry>
        </mxCell>
        <mxCell id="RP_2uXz7BemKraklUsJN-51" value="" style="edgeStyle=entityRelationEdgeStyle;curved=1;rounded=0;orthogonalLoop=1;jettySize=auto;html=1;startArrow=none;endArrow=none;segment=10;sourcePerimeterSpacing=0;targetPerimeterSpacing=0;fontSize=12;startSize=8;endSize=8;" parent="1" source="RP_2uXz7BemKraklUsJN-8" target="RP_2uXz7BemKraklUsJN-50" edge="1">
          <mxGeometry relative="1" as="geometry" />
        </mxCell>
        <mxCell id="RP_2uXz7BemKraklUsJN-54" value="" style="edgeStyle=entityRelationEdgeStyle;curved=1;rounded=0;orthogonalLoop=1;jettySize=auto;html=1;startArrow=none;endArrow=none;segment=10;sourcePerimeterSpacing=0;targetPerimeterSpacing=0;fontSize=12;startSize=8;endSize=8;" parent="1" source="RP_2uXz7BemKraklUsJN-8" target="RP_2uXz7BemKraklUsJN-53" edge="1">
          <mxGeometry relative="1" as="geometry" />
        </mxCell>
        <mxCell id="RP_2uXz7BemKraklUsJN-56" value="" style="edgeStyle=entityRelationEdgeStyle;curved=1;rounded=0;orthogonalLoop=1;jettySize=auto;html=1;startArrow=none;endArrow=none;segment=10;sourcePerimeterSpacing=0;targetPerimeterSpacing=0;fontSize=12;startSize=8;endSize=8;" parent="1" source="RP_2uXz7BemKraklUsJN-8" target="RP_2uXz7BemKraklUsJN-55" edge="1">
          <mxGeometry relative="1" as="geometry" />
        </mxCell>
        <mxCell id="RP_2uXz7BemKraklUsJN-8" value="入数据" style="whiteSpace=wrap;html=1;shape=partialRectangle;top=0;left=0;bottom=1;right=0;points=[[0,1],[1,1]];fillColor=none;align=center;verticalAlign=bottom;routingCenterY=0.5;snapToPoint=1;recursiveResize=0;autosize=1;treeFolding=1;treeMoving=1;newEdgeStyle={&quot;edgeStyle&quot;:&quot;entityRelationEdgeStyle&quot;,&quot;startArrow&quot;:&quot;none&quot;,&quot;endArrow&quot;:&quot;none&quot;,&quot;segment&quot;:10,&quot;curved&quot;:1,&quot;sourcePerimeterSpacing&quot;:0,&quot;targetPerimeterSpacing&quot;:0};fontSize=16;labelBackgroundColor=none;strokeColor=#FF6392;fontColor=#5AA9E6;" parent="1" vertex="1">
          <mxGeometry x="211" y="-218.71" width="90" height="30" as="geometry" />
        </mxCell>
        <mxCell id="RP_2uXz7BemKraklUsJN-59" style="edgeStyle=entityRelationEdgeStyle;curved=1;rounded=0;orthogonalLoop=1;jettySize=auto;html=1;startArrow=none;endArrow=none;segment=10;sourcePerimeterSpacing=0;targetPerimeterSpacing=0;exitX=0;exitY=1;exitDx=0;exitDy=0;fontSize=12;startSize=8;endSize=8;" parent="1" source="RP_2uXz7BemKraklUsJN-21" target="RP_2uXz7BemKraklUsJN-53" edge="1">
          <mxGeometry relative="1" as="geometry" />
        </mxCell>
        <mxCell id="RP_2uXz7BemKraklUsJN-60" style="edgeStyle=entityRelationEdgeStyle;curved=1;rounded=0;orthogonalLoop=1;jettySize=auto;html=1;startArrow=none;endArrow=none;segment=10;sourcePerimeterSpacing=0;targetPerimeterSpacing=0;exitX=0;exitY=1;exitDx=0;exitDy=0;fontSize=12;startSize=8;endSize=8;" parent="1" source="RP_2uXz7BemKraklUsJN-21" target="RP_2uXz7BemKraklUsJN-55" edge="1">
          <mxGeometry relative="1" as="geometry" />
        </mxCell>
        <mxCell id="RP_2uXz7BemKraklUsJN-21" value="格式：数据+时间戳(Unix)&lt;br&gt;容器：vector" style="whiteSpace=wrap;html=1;shape=partialRectangle;top=0;left=0;bottom=1;right=0;points=[[0,1],[1,1]];fillColor=none;align=left;verticalAlign=bottom;routingCenterY=0.5;snapToPoint=1;recursiveResize=0;autosize=1;treeFolding=1;treeMoving=1;newEdgeStyle={&quot;edgeStyle&quot;:&quot;entityRelationEdgeStyle&quot;,&quot;startArrow&quot;:&quot;none&quot;,&quot;endArrow&quot;:&quot;none&quot;,&quot;segment&quot;:10,&quot;curved&quot;:1,&quot;sourcePerimeterSpacing&quot;:0,&quot;targetPerimeterSpacing&quot;:0};fontSize=16;labelBackgroundColor=none;strokeColor=#FF6392;fontColor=#5AA9E6;" parent="1" vertex="1">
          <mxGeometry x="621" y="-238.71" width="200" height="50" as="geometry" />
        </mxCell>
        <mxCell id="RP_2uXz7BemKraklUsJN-46" value="" style="edgeStyle=entityRelationEdgeStyle;curved=1;rounded=0;orthogonalLoop=1;jettySize=auto;html=1;startArrow=none;endArrow=none;segment=10;sourcePerimeterSpacing=0;targetPerimeterSpacing=0;fontSize=12;startSize=8;endSize=8;" parent="1" source="RP_2uXz7BemKraklUsJN-63" target="RP_2uXz7BemKraklUsJN-43" edge="1">
          <mxGeometry relative="1" as="geometry">
            <mxPoint x="672.5" y="326.5" as="sourcePoint" />
          </mxGeometry>
        </mxCell>
        <mxCell id="RP_2uXz7BemKraklUsJN-64" value="" style="edgeStyle=entityRelationEdgeStyle;curved=1;rounded=0;orthogonalLoop=1;jettySize=auto;html=1;startArrow=none;endArrow=none;segment=10;sourcePerimeterSpacing=0;targetPerimeterSpacing=0;fontSize=12;startSize=8;endSize=8;" parent="1" source="RP_2uXz7BemKraklUsJN-41" target="RP_2uXz7BemKraklUsJN-63" edge="1">
          <mxGeometry relative="1" as="geometry" />
        </mxCell>
        <mxCell id="RP_2uXz7BemKraklUsJN-66" value="" style="edgeStyle=entityRelationEdgeStyle;curved=1;rounded=0;orthogonalLoop=1;jettySize=auto;html=1;startArrow=none;endArrow=none;segment=10;sourcePerimeterSpacing=0;targetPerimeterSpacing=0;fontSize=12;startSize=8;endSize=8;" parent="1" source="RP_2uXz7BemKraklUsJN-41" target="RP_2uXz7BemKraklUsJN-65" edge="1">
          <mxGeometry relative="1" as="geometry" />
        </mxCell>
        <mxCell id="RP_2uXz7BemKraklUsJN-68" value="" style="edgeStyle=entityRelationEdgeStyle;curved=1;rounded=0;orthogonalLoop=1;jettySize=auto;html=1;startArrow=none;endArrow=none;segment=10;sourcePerimeterSpacing=0;targetPerimeterSpacing=0;fontSize=12;startSize=8;endSize=8;" parent="1" source="RP_2uXz7BemKraklUsJN-41" target="RP_2uXz7BemKraklUsJN-67" edge="1">
          <mxGeometry relative="1" as="geometry" />
        </mxCell>
        <mxCell id="RP_2uXz7BemKraklUsJN-85" value="" style="edgeStyle=entityRelationEdgeStyle;curved=1;rounded=0;orthogonalLoop=1;jettySize=auto;html=1;startArrow=none;endArrow=none;segment=10;sourcePerimeterSpacing=0;targetPerimeterSpacing=0;fontSize=12;startSize=8;endSize=8;" parent="1" source="RP_2uXz7BemKraklUsJN-67" target="RP_2uXz7BemKraklUsJN-84" edge="1">
          <mxGeometry relative="1" as="geometry" />
        </mxCell>
        <mxCell id="RP_2uXz7BemKraklUsJN-41" value="匹配接口" style="whiteSpace=wrap;html=1;shape=partialRectangle;top=0;left=0;bottom=1;right=0;points=[[0,1],[1,1]];fillColor=none;align=center;verticalAlign=bottom;routingCenterY=0.5;snapToPoint=1;recursiveResize=0;autosize=1;treeFolding=1;treeMoving=1;newEdgeStyle={&quot;edgeStyle&quot;:&quot;entityRelationEdgeStyle&quot;,&quot;startArrow&quot;:&quot;none&quot;,&quot;endArrow&quot;:&quot;none&quot;,&quot;segment&quot;:10,&quot;curved&quot;:1,&quot;sourcePerimeterSpacing&quot;:0,&quot;targetPerimeterSpacing&quot;:0};fontSize=16;labelBackgroundColor=none;strokeColor=#FF6392;fontColor=#5AA9E6;" parent="1" vertex="1">
          <mxGeometry x="350" y="236.5" width="100" height="30" as="geometry" />
        </mxCell>
        <mxCell id="RP_2uXz7BemKraklUsJN-69" style="edgeStyle=entityRelationEdgeStyle;curved=1;rounded=0;orthogonalLoop=1;jettySize=auto;html=1;startArrow=none;endArrow=none;segment=10;sourcePerimeterSpacing=0;targetPerimeterSpacing=0;exitX=0;exitY=1;exitDx=0;exitDy=0;fontSize=12;startSize=8;endSize=8;" parent="1" source="RP_2uXz7BemKraklUsJN-43" target="RP_2uXz7BemKraklUsJN-65" edge="1">
          <mxGeometry relative="1" as="geometry" />
        </mxCell>
        <mxCell id="RP_2uXz7BemKraklUsJN-43" value="以相机时间为基准搜索其余&lt;br&gt;感知设备的时间，如果时间&lt;br&gt;差值在±20ms范围内都认为&lt;br&gt;是同一帧。" style="whiteSpace=wrap;html=1;shape=partialRectangle;top=0;left=0;bottom=1;right=0;points=[[0,1],[1,1]];fillColor=none;align=left;verticalAlign=bottom;routingCenterY=0.5;snapToPoint=1;recursiveResize=0;autosize=1;treeFolding=1;treeMoving=1;newEdgeStyle={&quot;edgeStyle&quot;:&quot;entityRelationEdgeStyle&quot;,&quot;startArrow&quot;:&quot;none&quot;,&quot;endArrow&quot;:&quot;none&quot;,&quot;segment&quot;:10,&quot;curved&quot;:1,&quot;sourcePerimeterSpacing&quot;:0,&quot;targetPerimeterSpacing&quot;:0};fontSize=16;labelBackgroundColor=none;strokeColor=#FF6392;fontColor=#5AA9E6;" parent="1" vertex="1">
          <mxGeometry x="742.5" y="146.5" width="230" height="90" as="geometry" />
        </mxCell>
        <mxCell id="RP_2uXz7BemKraklUsJN-50" value="存放毫米波数据&amp;nbsp; 75ms/帧" style="whiteSpace=wrap;html=1;shape=partialRectangle;top=0;left=0;bottom=1;right=0;points=[[0,1],[1,1]];fillColor=none;align=left;verticalAlign=bottom;routingCenterY=0.5;snapToPoint=1;recursiveResize=0;autosize=1;treeFolding=1;treeMoving=1;newEdgeStyle={&quot;edgeStyle&quot;:&quot;entityRelationEdgeStyle&quot;,&quot;startArrow&quot;:&quot;none&quot;,&quot;endArrow&quot;:&quot;none&quot;,&quot;segment&quot;:10,&quot;curved&quot;:1,&quot;sourcePerimeterSpacing&quot;:0,&quot;targetPerimeterSpacing&quot;:0};fontSize=16;labelBackgroundColor=none;strokeColor=#FF6392;fontColor=#5AA9E6;" parent="1" vertex="1">
          <mxGeometry x="376" y="-268.71000000000004" width="220" height="30" as="geometry" />
        </mxCell>
        <mxCell id="RP_2uXz7BemKraklUsJN-53" value="存放激光数据&amp;nbsp; 100ms/帧" style="whiteSpace=wrap;html=1;shape=partialRectangle;top=0;left=0;bottom=1;right=0;points=[[0,1],[1,1]];fillColor=none;align=left;verticalAlign=bottom;routingCenterY=0.5;snapToPoint=1;recursiveResize=0;autosize=1;treeFolding=1;treeMoving=1;newEdgeStyle={&quot;edgeStyle&quot;:&quot;entityRelationEdgeStyle&quot;,&quot;startArrow&quot;:&quot;none&quot;,&quot;endArrow&quot;:&quot;none&quot;,&quot;segment&quot;:10,&quot;curved&quot;:1,&quot;sourcePerimeterSpacing&quot;:0,&quot;targetPerimeterSpacing&quot;:0};fontSize=16;labelBackgroundColor=none;strokeColor=#FF6392;fontColor=#5AA9E6;" parent="1" vertex="1" collapsed="1">
          <mxGeometry x="371" y="-218.71" width="210" height="30" as="geometry" />
        </mxCell>
        <mxCell id="RP_2uXz7BemKraklUsJN-55" value="存放相机数据&amp;nbsp; 25ms/帧" style="whiteSpace=wrap;html=1;shape=partialRectangle;top=0;left=0;bottom=1;right=0;points=[[0,1],[1,1]];fillColor=none;align=left;verticalAlign=bottom;routingCenterY=0.5;snapToPoint=1;recursiveResize=0;autosize=1;treeFolding=1;treeMoving=1;newEdgeStyle={&quot;edgeStyle&quot;:&quot;entityRelationEdgeStyle&quot;,&quot;startArrow&quot;:&quot;none&quot;,&quot;endArrow&quot;:&quot;none&quot;,&quot;segment&quot;:10,&quot;curved&quot;:1,&quot;sourcePerimeterSpacing&quot;:0,&quot;targetPerimeterSpacing&quot;:0};fontSize=16;labelBackgroundColor=none;strokeColor=#FF6392;fontColor=#5AA9E6;" parent="1" vertex="1">
          <mxGeometry x="381" y="-171.71" width="200" height="30" as="geometry" />
        </mxCell>
        <mxCell id="RP_2uXz7BemKraklUsJN-63" value="激光~相机" style="whiteSpace=wrap;html=1;shape=partialRectangle;top=0;left=0;bottom=1;right=0;points=[[0,1],[1,1]];fillColor=none;align=center;verticalAlign=bottom;routingCenterY=0.5;snapToPoint=1;recursiveResize=0;autosize=1;treeFolding=1;treeMoving=1;newEdgeStyle={&quot;edgeStyle&quot;:&quot;entityRelationEdgeStyle&quot;,&quot;startArrow&quot;:&quot;none&quot;,&quot;endArrow&quot;:&quot;none&quot;,&quot;segment&quot;:10,&quot;curved&quot;:1,&quot;sourcePerimeterSpacing&quot;:0,&quot;targetPerimeterSpacing&quot;:0};fontSize=16;labelBackgroundColor=none;strokeColor=#FF6392;fontColor=#5AA9E6;" parent="1" vertex="1">
          <mxGeometry x="592.5" y="154.5" width="110" height="30" as="geometry" />
        </mxCell>
        <mxCell id="RP_2uXz7BemKraklUsJN-65" value="毫米波~相机" style="whiteSpace=wrap;html=1;shape=partialRectangle;top=0;left=0;bottom=1;right=0;points=[[0,1],[1,1]];fillColor=none;align=center;verticalAlign=bottom;routingCenterY=0.5;snapToPoint=1;recursiveResize=0;autosize=1;treeFolding=1;treeMoving=1;newEdgeStyle={&quot;edgeStyle&quot;:&quot;entityRelationEdgeStyle&quot;,&quot;startArrow&quot;:&quot;none&quot;,&quot;endArrow&quot;:&quot;none&quot;,&quot;segment&quot;:10,&quot;curved&quot;:1,&quot;sourcePerimeterSpacing&quot;:0,&quot;targetPerimeterSpacing&quot;:0};fontSize=16;labelBackgroundColor=none;strokeColor=#FF6392;fontColor=#5AA9E6;" parent="1" vertex="1">
          <mxGeometry x="587.5" y="246.5" width="130" height="30" as="geometry" />
        </mxCell>
        <mxCell id="RP_2uXz7BemKraklUsJN-67" value="激光~毫米波~相机" style="whiteSpace=wrap;html=1;shape=partialRectangle;top=0;left=0;bottom=1;right=0;points=[[0,1],[1,1]];fillColor=none;align=center;verticalAlign=bottom;routingCenterY=0.5;snapToPoint=1;recursiveResize=0;autosize=1;treeFolding=1;treeMoving=1;newEdgeStyle={&quot;edgeStyle&quot;:&quot;entityRelationEdgeStyle&quot;,&quot;startArrow&quot;:&quot;none&quot;,&quot;endArrow&quot;:&quot;none&quot;,&quot;segment&quot;:10,&quot;curved&quot;:1,&quot;sourcePerimeterSpacing&quot;:0,&quot;targetPerimeterSpacing&quot;:0};fontSize=16;labelBackgroundColor=none;strokeColor=#FF6392;fontColor=#5AA9E6;" parent="1" vertex="1">
          <mxGeometry x="582.5" y="360.5" width="170" height="30" as="geometry" />
        </mxCell>
        <mxCell id="RP_2uXz7BemKraklUsJN-87" value="" style="edgeStyle=entityRelationEdgeStyle;curved=1;rounded=0;orthogonalLoop=1;jettySize=auto;html=1;startArrow=none;endArrow=none;segment=10;sourcePerimeterSpacing=0;targetPerimeterSpacing=0;fontSize=12;startSize=8;endSize=8;" parent="1" source="RP_2uXz7BemKraklUsJN-84" target="RP_2uXz7BemKraklUsJN-86" edge="1">
          <mxGeometry relative="1" as="geometry" />
        </mxCell>
        <mxCell id="RP_2uXz7BemKraklUsJN-89" value="" style="edgeStyle=entityRelationEdgeStyle;curved=1;rounded=0;orthogonalLoop=1;jettySize=auto;html=1;startArrow=none;endArrow=none;segment=10;sourcePerimeterSpacing=0;targetPerimeterSpacing=0;fontSize=12;startSize=8;endSize=8;" parent="1" source="RP_2uXz7BemKraklUsJN-84" target="RP_2uXz7BemKraklUsJN-88" edge="1">
          <mxGeometry relative="1" as="geometry" />
        </mxCell>
        <mxCell id="RP_2uXz7BemKraklUsJN-84" value="一级融合：激光~毫米波" style="whiteSpace=wrap;html=1;shape=partialRectangle;top=0;left=0;bottom=1;right=0;points=[[0,1],[1,1]];fillColor=none;align=center;verticalAlign=bottom;routingCenterY=0.5;snapToPoint=1;recursiveResize=0;autosize=1;treeFolding=1;treeMoving=1;newEdgeStyle={&quot;edgeStyle&quot;:&quot;entityRelationEdgeStyle&quot;,&quot;startArrow&quot;:&quot;none&quot;,&quot;endArrow&quot;:&quot;none&quot;,&quot;segment&quot;:10,&quot;curved&quot;:1,&quot;sourcePerimeterSpacing&quot;:0,&quot;targetPerimeterSpacing&quot;:0};fontSize=16;labelBackgroundColor=none;strokeColor=#FF6392;fontColor=#5AA9E6;" parent="1" vertex="1">
          <mxGeometry x="742.5" y="360.5" width="210" height="30" as="geometry" />
        </mxCell>
        <mxCell id="RP_2uXz7BemKraklUsJN-86" value="时间误差在±50ms" style="whiteSpace=wrap;html=1;shape=partialRectangle;top=0;left=0;bottom=1;right=0;points=[[0,1],[1,1]];fillColor=none;align=center;verticalAlign=bottom;routingCenterY=0.5;snapToPoint=1;recursiveResize=0;autosize=1;treeFolding=1;treeMoving=1;newEdgeStyle={&quot;edgeStyle&quot;:&quot;entityRelationEdgeStyle&quot;,&quot;startArrow&quot;:&quot;none&quot;,&quot;endArrow&quot;:&quot;none&quot;,&quot;segment&quot;:10,&quot;curved&quot;:1,&quot;sourcePerimeterSpacing&quot;:0,&quot;targetPerimeterSpacing&quot;:0};fontSize=16;labelBackgroundColor=none;strokeColor=#FF6392;fontColor=#5AA9E6;" parent="1" vertex="1">
          <mxGeometry x="942.5" y="360.5" width="170" height="30" as="geometry" />
        </mxCell>
        <mxCell id="RP_2uXz7BemKraklUsJN-91" value="" style="edgeStyle=entityRelationEdgeStyle;curved=1;rounded=0;orthogonalLoop=1;jettySize=auto;html=1;startArrow=none;endArrow=none;segment=10;sourcePerimeterSpacing=0;targetPerimeterSpacing=0;fontSize=12;startSize=8;endSize=8;" parent="1" source="RP_2uXz7BemKraklUsJN-88" target="RP_2uXz7BemKraklUsJN-90" edge="1">
          <mxGeometry relative="1" as="geometry" />
        </mxCell>
        <mxCell id="RP_2uXz7BemKraklUsJN-88" value="二级融合：&lt;br&gt;【激光~毫米波】~相机" style="whiteSpace=wrap;html=1;shape=partialRectangle;top=0;left=0;bottom=1;right=0;points=[[0,1],[1,1]];fillColor=none;align=center;verticalAlign=bottom;routingCenterY=0.5;snapToPoint=1;recursiveResize=0;autosize=1;treeFolding=1;treeMoving=1;newEdgeStyle={&quot;edgeStyle&quot;:&quot;entityRelationEdgeStyle&quot;,&quot;startArrow&quot;:&quot;none&quot;,&quot;endArrow&quot;:&quot;none&quot;,&quot;segment&quot;:10,&quot;curved&quot;:1,&quot;sourcePerimeterSpacing&quot;:0,&quot;targetPerimeterSpacing&quot;:0};fontSize=16;labelBackgroundColor=none;strokeColor=#FF6392;fontColor=#5AA9E6;" parent="1" vertex="1">
          <mxGeometry x="972.5" y="430.5" width="200" height="50" as="geometry" />
        </mxCell>
        <mxCell id="RP_2uXz7BemKraklUsJN-90" value="时间误差在±20ms" style="whiteSpace=wrap;html=1;shape=partialRectangle;top=0;left=0;bottom=1;right=0;points=[[0,1],[1,1]];fillColor=none;align=center;verticalAlign=bottom;routingCenterY=0.5;snapToPoint=1;recursiveResize=0;autosize=1;treeFolding=1;treeMoving=1;newEdgeStyle={&quot;edgeStyle&quot;:&quot;entityRelationEdgeStyle&quot;,&quot;startArrow&quot;:&quot;none&quot;,&quot;endArrow&quot;:&quot;none&quot;,&quot;segment&quot;:10,&quot;curved&quot;:1,&quot;sourcePerimeterSpacing&quot;:0,&quot;targetPerimeterSpacing&quot;:0};fontSize=16;labelBackgroundColor=none;strokeColor=#FF6392;fontColor=#5AA9E6;" parent="1" vertex="1">
          <mxGeometry x="1277.5" y="450.5" width="170" height="30" as="geometry" />
        </mxCell>
        <mxCell id="RP_2uXz7BemKraklUsJN-96" value="" style="edgeStyle=entityRelationEdgeStyle;curved=1;rounded=0;orthogonalLoop=1;jettySize=auto;html=1;startArrow=none;endArrow=none;segment=10;sourcePerimeterSpacing=0;targetPerimeterSpacing=0;fontSize=12;startSize=8;endSize=8;" parent="1" source="RP_2uXz7BemKraklUsJN-93" target="RP_2uXz7BemKraklUsJN-95" edge="1">
          <mxGeometry relative="1" as="geometry" />
        </mxCell>
        <mxCell id="PaXp9i7FlpDdy5BiucVH-3" style="edgeStyle=entityRelationEdgeStyle;curved=1;rounded=0;orthogonalLoop=1;jettySize=auto;html=1;startArrow=none;endArrow=none;segment=10;sourcePerimeterSpacing=0;targetPerimeterSpacing=0;exitX=0;exitY=1;exitDx=0;exitDy=0;fontSize=12;startSize=8;endSize=8;" parent="1" source="RP_2uXz7BemKraklUsJN-93" target="PaXp9i7FlpDdy5BiucVH-1" edge="1">
          <mxGeometry relative="1" as="geometry" />
        </mxCell>
        <mxCell id="RP_2uXz7BemKraklUsJN-93" value="调用匹配接口" style="whiteSpace=wrap;html=1;shape=partialRectangle;top=0;left=0;bottom=1;right=0;points=[[0,1],[1,1]];fillColor=none;align=center;verticalAlign=bottom;routingCenterY=0.5;snapToPoint=1;recursiveResize=0;autosize=1;treeFolding=1;treeMoving=1;newEdgeStyle={&quot;edgeStyle&quot;:&quot;entityRelationEdgeStyle&quot;,&quot;startArrow&quot;:&quot;none&quot;,&quot;endArrow&quot;:&quot;none&quot;,&quot;segment&quot;:10,&quot;curved&quot;:1,&quot;sourcePerimeterSpacing&quot;:0,&quot;targetPerimeterSpacing&quot;:0};fontSize=16;labelBackgroundColor=none;strokeColor=#FF6392;fontColor=#5AA9E6;" parent="1" vertex="1">
          <mxGeometry x="577.5" y="20" width="140" height="30" as="geometry" />
        </mxCell>
        <mxCell id="RP_2uXz7BemKraklUsJN-95" value="1、确保所有待匹配数据都已经存在&lt;br&gt;2、三种感知匹配时，先一级融合、再二级融合&lt;br&gt;3、相机数据每隔100ms保存一个camera_data_t&lt;br&gt;4、释放vector的权限可以交给匹配内部，外部释放还需要传递消息出去才能响应" style="whiteSpace=wrap;html=1;fontSize=16;verticalAlign=top;fillColor=none;strokeColor=#FF6392;fontColor=#5AA9E6;labelBackgroundColor=none;align=left;strokeWidth=4;" parent="1" vertex="1">
          <mxGeometry x="782.5" y="-15" width="360" height="130" as="geometry" />
        </mxCell>
        <mxCell id="PaXp9i7FlpDdy5BiucVH-1" value="匹配线程" style="whiteSpace=wrap;html=1;shape=partialRectangle;top=0;left=0;bottom=1;right=0;points=[[0,1],[1,1]];fillColor=none;align=center;verticalAlign=bottom;routingCenterY=0.5;snapToPoint=1;recursiveResize=0;autosize=1;treeFolding=1;treeMoving=1;newEdgeStyle={&quot;edgeStyle&quot;:&quot;entityRelationEdgeStyle&quot;,&quot;startArrow&quot;:&quot;none&quot;,&quot;endArrow&quot;:&quot;none&quot;,&quot;segment&quot;:10,&quot;curved&quot;:1,&quot;sourcePerimeterSpacing&quot;:0,&quot;targetPerimeterSpacing&quot;:0};fontSize=16;labelBackgroundColor=none;strokeColor=#FF6392;fontColor=#5AA9E6;" parent="1" vertex="1">
          <mxGeometry x="390" y="20" width="100" height="30" as="geometry" />
        </mxCell>
        <mxCell id="01GKTy-UXz0M2EFUFrAS-5" value="" style="edgeStyle=entityRelationEdgeStyle;curved=1;rounded=0;orthogonalLoop=1;jettySize=auto;html=1;startArrow=none;endArrow=none;segment=10;sourcePerimeterSpacing=0;targetPerimeterSpacing=0;fontSize=12;startSize=8;endSize=8;" parent="1" source="01GKTy-UXz0M2EFUFrAS-2" target="01GKTy-UXz0M2EFUFrAS-4" edge="1">
          <mxGeometry relative="1" as="geometry" />
        </mxCell>
        <mxCell id="01GKTy-UXz0M2EFUFrAS-9" value="" style="edgeStyle=entityRelationEdgeStyle;curved=1;rounded=0;orthogonalLoop=1;jettySize=auto;html=1;startArrow=none;endArrow=none;segment=10;sourcePerimeterSpacing=0;targetPerimeterSpacing=0;fontSize=12;startSize=8;endSize=8;" parent="1" source="01GKTy-UXz0M2EFUFrAS-2" target="01GKTy-UXz0M2EFUFrAS-8" edge="1">
          <mxGeometry relative="1" as="geometry" />
        </mxCell>
        <mxCell id="01GKTy-UXz0M2EFUFrAS-2" value="线程：查询匹配队列" style="whiteSpace=wrap;html=1;shape=partialRectangle;top=0;left=0;bottom=1;right=0;points=[[0,1],[1,1]];fillColor=none;align=center;verticalAlign=bottom;routingCenterY=0.5;snapToPoint=1;recursiveResize=0;autosize=1;treeFolding=1;treeMoving=1;newEdgeStyle={&quot;edgeStyle&quot;:&quot;entityRelationEdgeStyle&quot;,&quot;startArrow&quot;:&quot;none&quot;,&quot;endArrow&quot;:&quot;none&quot;,&quot;segment&quot;:10,&quot;curved&quot;:1,&quot;sourcePerimeterSpacing&quot;:0,&quot;targetPerimeterSpacing&quot;:0};fontSize=16;labelBackgroundColor=none;strokeColor=#FF6392;fontColor=#5AA9E6;" parent="1" vertex="1">
          <mxGeometry x="432.5" y="471.5" width="180" height="30" as="geometry" />
        </mxCell>
        <mxCell id="01GKTy-UXz0M2EFUFrAS-7" value="" style="edgeStyle=entityRelationEdgeStyle;curved=1;rounded=0;orthogonalLoop=1;jettySize=auto;html=1;startArrow=none;endArrow=none;segment=10;sourcePerimeterSpacing=0;targetPerimeterSpacing=0;fontSize=12;startSize=8;endSize=8;" parent="1" source="01GKTy-UXz0M2EFUFrAS-4" target="01GKTy-UXz0M2EFUFrAS-6" edge="1">
          <mxGeometry relative="1" as="geometry" />
        </mxCell>
        <mxCell id="01GKTy-UXz0M2EFUFrAS-4" value="有数据：利用future方法调用融合&lt;br&gt;有数据：直接调用融合算法，等待算法执行完毕，更新界面的imagLabel" style="whiteSpace=wrap;html=1;shape=partialRectangle;top=0;left=0;bottom=1;right=0;points=[[0,1],[1,1]];fillColor=none;align=left;verticalAlign=bottom;routingCenterY=0.5;snapToPoint=1;recursiveResize=0;autosize=1;treeFolding=1;treeMoving=1;newEdgeStyle={&quot;edgeStyle&quot;:&quot;entityRelationEdgeStyle&quot;,&quot;startArrow&quot;:&quot;none&quot;,&quot;endArrow&quot;:&quot;none&quot;,&quot;segment&quot;:10,&quot;curved&quot;:1,&quot;sourcePerimeterSpacing&quot;:0,&quot;targetPerimeterSpacing&quot;:0};fontSize=16;labelBackgroundColor=none;strokeColor=#FF6392;fontColor=#5AA9E6;" parent="1" vertex="1">
          <mxGeometry x="642.5" y="540.5" width="550" height="50" as="geometry" />
        </mxCell>
        <mxCell id="01GKTy-UXz0M2EFUFrAS-6" value="注意查看当前融合方式" style="whiteSpace=wrap;html=1;shape=partialRectangle;top=0;left=0;bottom=1;right=0;points=[[0,1],[1,1]];fillColor=none;align=center;verticalAlign=bottom;routingCenterY=0.5;snapToPoint=1;recursiveResize=0;autosize=1;treeFolding=1;treeMoving=1;newEdgeStyle={&quot;edgeStyle&quot;:&quot;entityRelationEdgeStyle&quot;,&quot;startArrow&quot;:&quot;none&quot;,&quot;endArrow&quot;:&quot;none&quot;,&quot;segment&quot;:10,&quot;curved&quot;:1,&quot;sourcePerimeterSpacing&quot;:0,&quot;targetPerimeterSpacing&quot;:0};fontSize=16;labelBackgroundColor=none;strokeColor=#FF6392;fontColor=#5AA9E6;" parent="1" vertex="1">
          <mxGeometry x="1242.5" y="560.5" width="200" height="30" as="geometry" />
        </mxCell>
        <mxCell id="01GKTy-UXz0M2EFUFrAS-8" value="无数据：等待" style="whiteSpace=wrap;html=1;shape=partialRectangle;top=0;left=0;bottom=1;right=0;points=[[0,1],[1,1]];fillColor=none;align=center;verticalAlign=bottom;routingCenterY=0.5;snapToPoint=1;recursiveResize=0;autosize=1;treeFolding=1;treeMoving=1;newEdgeStyle={&quot;edgeStyle&quot;:&quot;entityRelationEdgeStyle&quot;,&quot;startArrow&quot;:&quot;none&quot;,&quot;endArrow&quot;:&quot;none&quot;,&quot;segment&quot;:10,&quot;curved&quot;:1,&quot;sourcePerimeterSpacing&quot;:0,&quot;targetPerimeterSpacing&quot;:0};fontSize=16;labelBackgroundColor=none;strokeColor=#FF6392;fontColor=#5AA9E6;" parent="1" vertex="1">
          <mxGeometry x="642.5" y="430.5" width="140" height="30" as="geometry" />
        </mxCell>
        <mxCell id="01GKTy-UXz0M2EFUFrAS-13" value="" style="edgeStyle=entityRelationEdgeStyle;curved=1;rounded=0;orthogonalLoop=1;jettySize=auto;html=1;startArrow=none;endArrow=none;segment=10;sourcePerimeterSpacing=0;targetPerimeterSpacing=0;fontSize=12;startSize=8;endSize=8;" parent="1" source="01GKTy-UXz0M2EFUFrAS-10" target="01GKTy-UXz0M2EFUFrAS-12" edge="1">
          <mxGeometry relative="1" as="geometry" />
        </mxCell>
        <mxCell id="01GKTy-UXz0M2EFUFrAS-10" value="融合方式设置" style="whiteSpace=wrap;html=1;shape=partialRectangle;top=0;left=0;bottom=1;right=0;points=[[0,1],[1,1]];fillColor=none;align=center;verticalAlign=bottom;routingCenterY=0.5;snapToPoint=1;recursiveResize=0;autosize=1;treeFolding=1;treeMoving=1;newEdgeStyle={&quot;edgeStyle&quot;:&quot;entityRelationEdgeStyle&quot;,&quot;startArrow&quot;:&quot;none&quot;,&quot;endArrow&quot;:&quot;none&quot;,&quot;segment&quot;:10,&quot;curved&quot;:1,&quot;sourcePerimeterSpacing&quot;:0,&quot;targetPerimeterSpacing&quot;:0};fontSize=16;labelBackgroundColor=none;strokeColor=#FF6392;fontColor=#5AA9E6;" parent="1" vertex="1">
          <mxGeometry x="433" y="651.5" width="140" height="30" as="geometry" />
        </mxCell>
        <mxCell id="01GKTy-UXz0M2EFUFrAS-12" value="利用checkBox完成选择" style="whiteSpace=wrap;html=1;shape=partialRectangle;top=0;left=0;bottom=1;right=0;points=[[0,1],[1,1]];fillColor=none;align=center;verticalAlign=bottom;routingCenterY=0.5;snapToPoint=1;recursiveResize=0;autosize=1;treeFolding=1;treeMoving=1;newEdgeStyle={&quot;edgeStyle&quot;:&quot;entityRelationEdgeStyle&quot;,&quot;startArrow&quot;:&quot;none&quot;,&quot;endArrow&quot;:&quot;none&quot;,&quot;segment&quot;:10,&quot;curved&quot;:1,&quot;sourcePerimeterSpacing&quot;:0,&quot;targetPerimeterSpacing&quot;:0};fontSize=16;labelBackgroundColor=none;strokeColor=#FF6392;fontColor=#5AA9E6;" parent="1" vertex="1">
          <mxGeometry x="658" y="651.5" width="210" height="30" as="geometry" />
        </mxCell>
        <mxCell id="01GKTy-UXz0M2EFUFrAS-14" value="界面的imageLabel负责显示融合结果" style="whiteSpace=wrap;html=1;shape=partialRectangle;top=0;left=0;bottom=1;right=0;points=[[0,1],[1,1]];fillColor=none;align=center;verticalAlign=bottom;routingCenterY=0.5;snapToPoint=1;recursiveResize=0;autosize=1;treeFolding=1;treeMoving=1;newEdgeStyle={&quot;edgeStyle&quot;:&quot;entityRelationEdgeStyle&quot;,&quot;startArrow&quot;:&quot;none&quot;,&quot;endArrow&quot;:&quot;none&quot;,&quot;segment&quot;:10,&quot;curved&quot;:1,&quot;sourcePerimeterSpacing&quot;:0,&quot;targetPerimeterSpacing&quot;:0};fontSize=16;labelBackgroundColor=none;strokeColor=#FF6392;fontColor=#5AA9E6;" parent="1" vertex="1">
          <mxGeometry x="422.5" y="800.5" width="300" height="30" as="geometry" />
        </mxCell>
      </root>
    </mxGraphModel>
  </diagram>
</mxfile>
